<?xml version="1.0" encoding="utf-8"?>
<!-- Generator: Adobe Illustrator 22.0.0, SVG Export Plug-In . SVG Version: 6.00 Build 0)  -->
<svg version="1.1" id="Layer_1" xmlns="http://www.w3.org/2000/svg" xmlns:xlink="http://www.w3.org/1999/xlink" x="0px" y="0px"
	 viewBox="0 0 800 800" style="enable-background:new 0 0 800 800;" xml:space="preserve">
<style type="text/css">
	.st0{fill:#63707E;}
	.st1{fill:#FFFFFF;}
</style>
<title>team-collaboration/version-control/github</title>
<desc>Created with Sketch.</desc>
<g id="team-collaboration_x2F_version-control_x2F_github">
	<g id="container" transform="translate(2.000000, 2.000000)">
		<path id="mask" class="st0" d="M162.4,9h471.2C718.4,9,787,77.6,787,162.4v471.2c0,84.7-68.7,153.4-153.4,153.4H162.4
			C77.6,787,9,718.4,9,633.6V162.4C9,77.6,77.6,9,162.4,9z"/>
		<path id="Shape" class="st1" d="M658.9,254.7c-26.4-45.3-62.3-81.1-107.5-107.5c-45.3-26.4-94.7-39.6-148.3-39.6
			c-53.6,0-103,13.2-148.3,39.6c-45.3,26.4-81.1,62.3-107.5,107.5c-26.4,45.3-39.6,94.7-39.6,148.3c0,64.4,18.8,122.3,56.4,173.7
			c37.6,51.4,86.1,87,145.6,106.8c6.9,1.3,12.1,0.4,15.4-2.7c3.3-3.1,5-6.9,5-11.5c0-0.8-0.1-7.7-0.2-20.8
			c-0.1-13.1-0.2-24.5-0.2-34.2l-8.8,1.5c-5.6,1-12.8,1.5-21.4,1.3c-8.6-0.1-17.5-1-26.7-2.7c-9.2-1.7-17.8-5.5-25.8-11.5
			c-7.9-6-13.6-13.9-16.9-23.7l-3.8-8.9c-2.6-5.9-6.6-12.4-12.1-19.6c-5.5-7.2-11.1-12.1-16.7-14.6l-2.7-1.9c-1.8-1.3-3.5-2.8-5-4.6
			c-1.5-1.8-2.7-3.6-3.5-5.4c-0.8-1.8-0.1-3.3,1.9-4.4c2.1-1.2,5.8-1.7,11.2-1.7l7.7,1.1c5.1,1,11.5,4.1,19,9.2
			c7.6,5.1,13.8,11.8,18.7,20c5.9,10.5,13,18.5,21.4,24c8.3,5.5,16.7,8.3,25.2,8.3s15.8-0.6,21.9-1.9c6.2-1.3,11.9-3.2,17.3-5.8
			c2.3-17.2,8.6-30.4,18.8-39.6c-14.6-1.5-27.8-3.8-39.4-6.9c-11.7-3.1-23.7-8.1-36.2-15c-12.4-6.9-22.8-15.5-31-25.8
			c-8.2-10.3-14.9-23.7-20.2-40.4c-5.3-16.7-7.9-35.9-7.9-57.7c0-31,10.1-57.5,30.4-79.3c-9.5-23.3-8.6-49.5,2.7-78.5
			c7.4-2.3,18.5-0.6,33.1,5.2c14.6,5.8,25.3,10.7,32.1,14.8c6.8,4.1,12.2,7.6,16.4,10.4c23.9-6.7,48.5-10,73.9-10
			c25.4,0,50,3.3,73.9,10l14.6-9.2c10-6.2,21.8-11.8,35.4-16.9c13.6-5.1,24-6.5,31.2-4.2c11.5,29,12.6,55.1,3.1,78.5
			c20.3,21.8,30.4,48.2,30.4,79.3c0,21.8-2.6,41.1-7.9,57.9c-5.3,16.8-12,30.3-20.4,40.4c-8.3,10.1-18.7,18.7-31.2,25.6
			c-12.4,6.9-24.5,11.9-36.2,15c-11.7,3.1-24.8,5.4-39.4,6.9c13.3,11.5,20,29.7,20,54.6v81.2c0,4.6,1.6,8.5,4.8,11.5
			c3.2,3.1,8.3,4,15.2,2.7c59.5-19.7,108-55.3,145.6-106.8c37.6-51.4,56.4-109.3,56.4-173.7C698.5,349.4,685.3,300,658.9,254.7z"/>
	</g>
</g>
</svg>
