<?xml version="1.0" encoding="utf-8"?>
<!-- Generator: Adobe Illustrator 22.0.0, SVG Export Plug-In . SVG Version: 6.00 Build 0)  -->
<svg version="1.1" id="Layer_1" xmlns="http://www.w3.org/2000/svg" xmlns:xlink="http://www.w3.org/1999/xlink" x="0px" y="0px"
	 viewBox="0 0 512 512" style="enable-background:new 0 0 512 512;" xml:space="preserve">
<style type="text/css">
	.st0{fill:none;stroke:#63707E;stroke-width:8;stroke-miterlimit:10;}
	.st1{fill:#63707E;}
	.st2{fill:#C8DAD3;}
	.st3{fill:#93B5B3;}
	.st4{fill:#B7B7B7;}
</style>
<path class="st0" d="M81.1,5h350.7C473.4,5,507,38.8,507,80.4v352.1c0,41.7-33.6,75.4-75.1,75.4H81.1C39.6,508,6,474.2,6,432.6V80.4
	C6,38.8,39.6,5,81.1,5z"/>
<path class="st1" d="M158,391V249l-82-63v175c0,20,10,30,30,30"/>
<path class="st2" d="M154,248l102,77l102-77v-98l-102,77l-102-77"/>
<path class="st3" d="M354,391V249l82-63v175c0,20-10,30-30,30"/>
<path class="st3" d="M76,188l82,63v-98l-30-23c-27-21-52,0-52,26"/>
<path class="st4" d="M436,188l-82,63v-98l30-23c27-21,52,0,52,26"/>
</svg>
