<?xml version="1.0" encoding="utf-8"?>
<!-- Generator: Adobe Illustrator 22.0.0, SVG Export Plug-In . SVG Version: 6.00 Build 0)  -->
<svg version="1.1" id="Layer_1" xmlns="http://www.w3.org/2000/svg" xmlns:xlink="http://www.w3.org/1999/xlink" x="0px" y="0px"
	 viewBox="0 0 800 800" style="enable-background:new 0 0 800 800;" xml:space="preserve">
<style type="text/css">
	.st0{fill:none;stroke:#63707E;stroke-width:12;}
	.st1{fill:#63707E;}
</style>
<path class="st0" d="M400,760c-79.7,0-137,0-181.7-4.3c-44.2-4.3-72.4-12.6-95-26.7c-25.8-16.2-47.6-38-63.8-63.8
	c-14.2-22.6-22.4-50.8-26.7-95c-4.3-44.7-4.3-102-4.3-181.7s0-137,4.3-181.7c4.3-44.2,12.6-72.4,26.6-95
	c16.2-25.8,38-47.6,63.8-63.8c22.6-14.2,50.8-22.4,95-26.7C263,17,320.3,17,400,17s137,0,181.7,4.3c44.2,4.3,72.4,12.6,95,26.6
	c25.8,16.2,47.6,38,63.8,63.8c14.2,22.6,22.4,50.8,26.7,95c4.3,44.9,4.3,102.1,4.3,181.8s0,137-4.3,181.7
	c-4.3,44.2-12.6,72.4-26.7,95c-16.2,25.8-38,47.6-63.8,63.8c-22.6,14.2-50.8,22.4-95,26.7C537,760,479.7,760,400,760L400,760z"/>
<circle class="st0" cx="400" cy="388.5" r="168.9"/>
<circle class="st1" cx="619.5" cy="169" r="50.7"/>
</svg>
